{
	"asset":{
		"generator":"Khronos glTF Blender I/O v5.0.21",
		"version":"2.0"
	},
	"scene":0,
	"scenes":[
		{
			"name":"Scene",
			"nodes":[
				0
			]
		}
	],
	"nodes":[
		{
			"mesh":0,
			"name":"Cylinder",
			"scale":[
				0.5162268280982971,
				0.5162268280982971,
				0.5162268280982971
			]
		}
	],
	"materials":[
		{
			"doubleSided":true,
			"name":"Material",
			"pbrMetallicRoughness":{
				"baseColorTexture":{
					"index":0
				},
				"metallicFactor":0,
				"roughnessFactor":0.5
			}
		}
	],
	"meshes":[
		{
			"name":"Cylinder",
			"primitives":[
				{
					"attributes":{
						"POSITION":0,
						"NORMAL":1,
						"TEXCOORD_0":2
					},
					"indices":3,
					"material":0
				}
			]
		}
	],
	"textures":[
		{
			"sampler":0,
			"source":0
		}
	],
	"images":[
		{
			"mimeType":"image/png",
			"name":"flag_texture",
			"uri":"flag_texture.png"
		}
	],
	"accessors":[
		{
			"bufferView":0,
			"componentType":5126,
			"count":726,
			"max":[
				0.14266760647296906,
				1.6065853834152222,
				0.14266760647296906
			],
			"min":[
				-0.14266760647296906,
				-0.038971882313489914,
				-0.824032723903656
			],
			"type":"VEC3"
		},
		{
			"bufferView":1,
			"componentType":5126,
			"count":726,
			"type":"VEC3"
		},
		{
			"bufferView":2,
			"componentType":5126,
			"count":726,
			"type":"VEC2"
		},
		{
			"bufferView":3,
			"componentType":5123,
			"count":1242,
			"type":"SCALAR"
		}
	],
	"bufferViews":[
		{
			"buffer":0,
			"byteLength":8712,
			"byteOffset":0,
			"target":34962
		},
		{
			"buffer":0,
			"byteLength":8712,
			"byteOffset":8712,
			"target":34962
		},
		{
			"buffer":0,
			"byteLength":5808,
			"byteOffset":17424,
			"target":34962
		},
		{
			"buffer":0,
			"byteLength":2484,
			"byteOffset":23232,
			"target":34963
		}
	],
	"samplers":[
		{
			"magFilter":9729,
			"minFilter":9987
		}
	],
	"buffers":[
		{
			"byteLength":25716,
			"uri":"flag.bin"
		}
	]
}
