{
	"asset":{
		"generator":"Khronos glTF Blender I/O v5.1.18",
		"version":"2.0"
	},
	"extensionsUsed":[
		"KHR_texture_transform"
	],
	"extensionsRequired":[
		"KHR_texture_transform"
	],
	"scene":0,
	"scenes":[
		{
			"name":"Scene",
			"nodes":[
				0
			]
		}
	],
	"nodes":[
		{
			"mesh":0,
			"name":"mine"
		}
	],
	"materials":[
		{
			"doubleSided":true,
			"name":"Material.003",
			"normalTexture":{
				"index":0
			},
			"pbrMetallicRoughness":{
				"baseColorTexture":{
					"index":1
				},
				"metallicFactor":0,
				"metallicRoughnessTexture":{
					"index":2
				}
			}
		},
		{
			"doubleSided":true,
			"name":"Material.004",
			"normalTexture":{
				"extensions":{
					"KHR_texture_transform":{
						"offset":[
							0,
							-0.7999999523162842
						],
						"scale":[
							1,
							1.7999999523162842
						]
					}
				},
				"index":3
			},
			"pbrMetallicRoughness":{
				"baseColorFactor":[
					0,
					0,
					0,
					1
				],
				"metallicFactor":0,
				"metallicRoughnessTexture":{
					"extensions":{
						"KHR_texture_transform":{
							"offset":[
								0,
								-0.7999999523162842
							],
							"scale":[
								1,
								1.7999999523162842
							]
						}
					},
					"index":4
				}
			}
		}
	],
	"meshes":[
		{
			"name":"Cylinder",
			"primitives":[
				{
					"attributes":{
						"POSITION":0,
						"NORMAL":1,
						"TEXCOORD_0":2
					},
					"indices":3,
					"material":0
				},
				{
					"attributes":{
						"POSITION":4,
						"NORMAL":5,
						"TEXCOORD_0":6
					},
					"indices":7,
					"material":1
				}
			]
		}
	],
	"textures":[
		{
			"sampler":0,
			"source":0
		},
		{
			"sampler":0,
			"source":1
		},
		{
			"sampler":0,
			"source":2
		},
		{
			"sampler":0,
			"source":0
		},
		{
			"sampler":0,
			"source":2
		}
	],
	"images":[
		{
			"mimeType":"image/jpeg",
			"name":"Plastic009_1K-JPG_NormalGL",
			"uri":"Plastic009_1K-JPG_NormalGL.jpg"
		},
		{
			"mimeType":"image/jpeg",
			"name":"Plastic009_1K-JPG_Color",
			"uri":"Plastic009_1K-JPG_Color.jpg"
		},
		{
			"mimeType":"image/png",
			"name":"Plastic009_1K-JPG_Roughness",
			"uri":"Plastic009_1K-JPG_Roughness.png"
		}
	],
	"accessors":[
		{
			"bufferView":0,
			"componentType":5126,
			"count":1026,
			"max":[
				0.501668393611908,
				0.28204748034477234,
				0.501668393611908
			],
			"min":[
				-0.501668393611908,
				-0.03061567060649395,
				-0.501668393611908
			],
			"type":"VEC3"
		},
		{
			"bufferView":1,
			"componentType":5126,
			"count":1026,
			"type":"VEC3"
		},
		{
			"bufferView":2,
			"componentType":5126,
			"count":1026,
			"type":"VEC2"
		},
		{
			"bufferView":3,
			"componentType":5123,
			"count":1716,
			"type":"SCALAR"
		},
		{
			"bufferView":4,
			"componentType":5126,
			"count":772,
			"max":[
				0.5173759460449219,
				0.35869166254997253,
				0.5173759460449219
			],
			"min":[
				-0.5173759460449219,
				-0.03746083006262779,
				-0.5173759460449219
			],
			"type":"VEC3"
		},
		{
			"bufferView":5,
			"componentType":5126,
			"count":772,
			"type":"VEC3"
		},
		{
			"bufferView":6,
			"componentType":5126,
			"count":772,
			"type":"VEC2"
		},
		{
			"bufferView":7,
			"componentType":5123,
			"count":1512,
			"type":"SCALAR"
		}
	],
	"bufferViews":[
		{
			"buffer":0,
			"byteLength":12312,
			"byteOffset":0,
			"target":34962
		},
		{
			"buffer":0,
			"byteLength":12312,
			"byteOffset":12312,
			"target":34962
		},
		{
			"buffer":0,
			"byteLength":8208,
			"byteOffset":24624,
			"target":34962
		},
		{
			"buffer":0,
			"byteLength":3432,
			"byteOffset":32832,
			"target":34963
		},
		{
			"buffer":0,
			"byteLength":9264,
			"byteOffset":36264,
			"target":34962
		},
		{
			"buffer":0,
			"byteLength":9264,
			"byteOffset":45528,
			"target":34962
		},
		{
			"buffer":0,
			"byteLength":6176,
			"byteOffset":54792,
			"target":34962
		},
		{
			"buffer":0,
			"byteLength":3024,
			"byteOffset":60968,
			"target":34963
		}
	],
	"samplers":[
		{
			"magFilter":9729,
			"minFilter":9987
		}
	],
	"buffers":[
		{
			"byteLength":63992,
			"uri":"mine.bin"
		}
	]
}
